<svg width="313" height="226" viewBox="0 0 313 226" fill="none" xmlns="http://www.w3.org/2000/svg">
<path fill-rule="evenodd" clip-rule="evenodd" d="M137.766 0.620085C114.649 4.81409 90.0375 30.9681 63.5055 79.5331C59.5825 86.7141 59.1465 87.3551 58.1055 87.4561C32.7955 89.9271 17.8695 96.1791 9.93253 107.636C4.84053 114.987 6.18653 125.598 12.6245 128.85C15.7645 130.436 16.3065 130.153 20.2535 124.872C24.9115 118.641 32.8035 114.342 42.2375 112.898C46.2575 112.282 46.2325 112.243 44.2445 115.924C30.7345 140.933 17.8435 156.902 6.45253 162.738C-7.08247 169.673 2.46453 189.083 18.5825 187.398C36.2715 185.55 46.7775 173.813 67.7595 132.463L78.1655 111.955L81.2405 112.053C84.6825 112.163 102.214 113.401 102.413 113.549C102.484 113.601 101.39 118.213 99.9815 123.798C91.1935 158.662 94.6405 180.656 110.17 188.817C122.833 195.47 144.278 188.76 144.278 178.144V176.713L142.185 176.497C126.316 174.859 123.117 152.461 133.334 114.518C133.697 113.17 133.916 112.932 134.795 112.932C138.848 112.932 145.835 109.875 148.987 106.722C153.043 102.666 155.287 95.7991 153.341 93.4011L152.548 92.4241L146.466 92.5491C139.001 92.7021 139.436 93.0431 140.979 88.2331C148.09 66.0651 156.691 39.9091 159.336 32.4101C163.352 21.0241 163.897 18.9741 163.895 15.2761C163.887 4.24009 152.625 -2.07591 137.766 0.620085ZM203.262 13.4921C196.042 15.5041 192.07 20.3821 187.816 32.4631C187.021 34.7191 185.507 38.7901 184.451 41.5101L182.531 46.4561L180.689 46.6861C179.677 46.8121 176.914 47.1001 174.551 47.3241C164.448 48.2841 160.702 51.3611 159.582 59.6201C158.472 67.8021 160.597 70.0321 169.159 69.6731L174.447 69.4521L174.156 70.3911C173.996 70.9071 172.644 74.8461 171.151 79.1431C158.768 114.776 152.655 134.684 150.751 145.57C144.624 180.6 180.838 182.978 207.762 149.314L210.062 146.437L210.925 148.997C219.427 174.2 256.862 177.786 285.489 156.14C300.989 144.419 316.324 119.711 312.248 113.026C309.398 108.35 307.004 109.205 300.9 117.08C285.927 136.398 269.071 147.411 255.41 146.802C246.641 146.41 242.824 142.758 241.481 133.476C240.894 129.413 240.148 129.968 247.807 128.775C263.164 126.381 270.255 123.637 280.242 116.219C316.233 89.4881 306.898 47.4741 267.035 56.7841C242.034 62.6221 219.753 88.0041 212.059 119.41C210.218 126.926 210.432 126.481 205.952 132.104C192.025 149.586 180.223 152.306 183.532 137.27C185.729 127.287 195.367 97.1871 203.66 74.4061L206.523 66.5441L209.677 66.2971C211.413 66.1621 215.469 65.8731 218.692 65.6551C239.727 64.2361 252.645 56.4731 254.262 44.2791C255.109 37.8981 252.11 36.7861 240.263 39.0871C231.975 40.6961 228.209 41.3141 221.245 42.2041C215.934 42.8841 215.116 43.0851 214.47 43.8721C213.587 44.9501 213.335 45.7331 217.159 35.4951C221.397 24.1461 221.624 21.8511 218.887 18.0711C215.711 13.6871 209.302 11.8081 203.262 13.4921ZM131.322 28.8811C125.417 43.6071 119.666 59.3851 114.148 75.9981C111.154 85.0111 108.633 92.4561 108.546 92.5441C108.312 92.7771 88.8375 91.2161 88.5635 90.9421C88.3485 90.7281 97.6725 73.5531 104.936 60.7831C111.432 49.3641 120.661 36.3331 124.965 32.5051C128.09 29.7251 131.841 27.5881 131.322 28.8811ZM277.663 74.8151C280.606 76.0451 281.077 80.5281 278.922 86.7791C275.321 97.2231 264.485 106.464 248.477 112.742C243.784 114.582 243.872 114.691 245.881 109.552C254.351 87.8791 269.445 71.3811 277.663 74.8151ZM212.832 182.065C196.822 183.266 180.378 186.953 155.02 195.027C125.758 204.343 111.585 206.982 102.073 204.885C94.9965 203.325 93.4415 203.88 93.1755 208.059C92.7925 214.07 98.6865 220.491 107.118 223.249C119.764 227.385 134.9 225.462 162.376 216.228C207.915 200.925 227.949 199.3 245.945 209.451C251.914 212.818 257.018 203.18 253.693 194.82C250.019 185.585 233.72 180.497 212.832 182.065Z" fill="#FF0036"/>
</svg>
